{"asset":{"version":"2.0","generator":"THREE.GLTFExporter"},"scenes":[{"name":"default","nodes":[0,1]}],"scene":0,"nodes":[{"name":"default","mesh":0},{"matrix":[1,0,0,0,0,1,0,0,0,0,1,0,11,-10,0,1],"name":"ground-col","extras":{"data":{"name":"ground-col","points":[{"name":"Origin","pos":{"x":0,"y":0,"z":0}}],"billboard":{"enabled":false,"y":false},"directional":{"enabled":false,"mode":"cameraAngle","angles":[]},"custom":[],"instance":{"name":"ground-col","uuid":"5A39A302-3A47-4A06-8CA6-EF51F42D8E83","parent":null,"pos":{"x":11,"y":-10,"z":0},"rot":{"x":0,"y":0,"z":0,"order":"XYZ"},"sca":{"x":1,"y":1,"z":1},"custom":[]}}},"mesh":1}],"bufferViews":[{"buffer":0,"byteOffset":0,"byteLength":864,"target":34962,"byteStride":12},{"buffer":0,"byteOffset":864,"byteLength":864,"target":34962,"byteStride":12},{"buffer":0,"byteOffset":1728,"byteLength":576,"target":34962,"byteStride":8},{"buffer":0,"byteOffset":2304,"byteLength":144,"target":34963},{"buffer":0,"byteOffset":2448,"byteLength":58824,"target":34962,"byteStride":12},{"buffer":0,"byteOffset":61272,"byteLength":58824,"target":34962,"byteStride":12},{"buffer":0,"byteOffset":120096,"byteLength":39216,"target":34962,"byteStride":8},{"buffer":0,"byteOffset":159312,"byteLength":9804,"target":34963}],"buffers":[{"byteLength":169116,"uri":"data:application/octet-stream;base64,"}],"accessors":[{"bufferView":0,"componentType":5126,"count":72,"max":[14,9,3.242640972137451],"min":[-3,-10,-6],"type":"VEC3"},{"bufferView":1,"componentType":5126,"count":72,"max":[0,0,1],"min":[-0.7071070075035095,0,0.7071065306663513],"type":"VEC3"},{"bufferView":2,"componentType":5126,"count":72,"max":[0.25,0.625],"min":[0,0],"type":"VEC2"},{"bufferView":3,"componentType":5123,"count":72,"max":[71],"min":[0],"type":"SCALAR"},{"bufferView":4,"componentType":5126,"count":4902,"max":[26,19,5],"min":[-19,10,-20],"type":"VEC3"},{"bufferView":5,"componentType":5126,"count":4902,"max":[1,1,1],"min":[-1,0,-1],"type":"VEC3"},{"bufferView":6,"componentType":5126,"count":4902,"max":[1,0.8125],"min":[0,0],"type":"VEC2"},{"bufferView":7,"componentType":5123,"count":4902,"max":[4901],"min":[0],"type":"SCALAR"}],"materials":[{"pbrMetallicRoughness":{"metallicFactor":0,"roughnessFactor":1,"baseColorTexture":{"index":0}},"alphaMode":"MASK","alphaCutoff":0.01,"name":"texture_1"}],"textures":[{"sampler":0,"source":0,"name":"texture_1"}],"samplers":[{"magFilter":9728,"minFilter":9728,"wrapS":33071,"wrapT":33071}],"images":[{"mimeType":"image/png","uri":"data:image/png;base64,"}],"meshes":[{"primitives":[{"mode":4,"attributes":{"POSITION":0,"NORMAL":1,"TEXCOORD_0":2},"indices":3,"material":0}]},{"primitives":[{"mode":4,"attributes":{"POSITION":4,"NORMAL":5,"TEXCOORD_0":6},"indices":7,"material":0}]}]}