{"asset":{"version":"2.0","generator":"babylon.js glTF exporter for 3dsmax 2026 v20251022.3"},"scene":0,"scenes":[{"nodes":[0,1]}],"nodes":[{"skin":0,"mesh":0,"name":"character"},{"children":[2,13,16],"translation":[-9.536743E-09,0.4697,-0.0],"rotation":[9.878167E-08,9.8123124E-08,0.70710665,0.7071069],"scale":[1.0,0.99999994,0.9999999],"name":"root"},{"children":[3],"translation":[0.076904446,-1.8819646E-08,-9.4063575E-09],"rotation":[-1.1916273E-06,3.280873E-07,3.9418222E-07,1.0],"scale":[1.0000002,1.0000001,1.0],"name":"stomach"},{"children":[4,5,9],"translation":[0.17409565,-2.1174346E-08,2.4318505E-08],"rotation":[-2.6673088E-06,-7.4787346E-07,2.7823103E-07,1.0],"scale":[0.9999999,0.99999964,1.0000001],"name":"chest"},{"translation":[0.23679976,-2.4840256E-07,-3.3338146E-08],"rotation":[2.5648633E-06,4.777693E-07,-5.085014E-07,1.0],"scale":[0.9999997,1.0000001,1.0000004],"name":"head"},{"children":[6],"translation":[0.23679993,7.6294015E-08,-0.0],"rotation":[2.417538E-06,0.848426,1.5056587E-06,0.52931404],"scale":[0.9999999,1.0000004,0.9999998],"name":"right_shoulder"},{"children":[7],"translation":[0.17257373,-7.6293944E-08,-7.6293944E-08],"rotation":[0.6478039,0.21544945,-0.27187368,0.67824507],"scale":[1.0,1.0,0.99999994],"name":"right_bicep"},{"children":[8],"translation":[0.19602707,1.14440915E-07,3.33786E-08],"rotation":[-0.0,-0.0,-0.15794002,0.98744875],"scale":[1.0000001,1.0000002,1.0],"name":"right_forearm"},{"translation":[0.16014346,1.5258789E-07,3.8146972E-08],"rotation":[3.906899E-07,-2.4400657E-07,0.0005571807,0.9999999],"scale":[0.9999997,0.9999997,1.0000001],"name":"right_hand"},{"children":[10],"translation":[0.23679985,7.6293944E-08,-0.0],"rotation":[3.3322456E-06,-0.8484255,-2.0521395E-06,0.52931476],"scale":[1.0000001,1.0000004,0.9999999],"name":"left_shoulder"},{"children":[11],"translation":[0.17257342,7.6293944E-08,2.2888183E-07],"rotation":[-0.6478038,-0.21546592,-0.2718864,0.6782349],"scale":[1.0000004,1.0000004,1.0000004],"name":"left_bicep"},{"children":[12],"translation":[0.19602695,1.14440915E-07,-0.0],"rotation":[2.829457E-09,-6.7906996E-08,-0.15789066,0.9874566],"scale":[1.0000001,1.0000002,1.0000002],"name":"left_forearm"},{"translation":[0.16014332,7.6293944E-08,4.7683715E-09],"rotation":[-3.2270341E-07,1.5832488E-07,0.0005570299,0.9999999],"scale":[0.9999997,0.9999994,1.0],"name":"left_hand"},{"children":[14],"translation":[0.0,-3.8146972E-08,-0.0965],"rotation":[-5.4325983E-07,-0.00016994357,0.9999937,-0.0035605754],"scale":[1.0000002,1.0000006,1.0],"name":"right_thigh"},{"children":[15],"translation":[0.19115533,2.9373168E-06,8.869171E-07],"rotation":[-9.423892E-08,-0.0,-0.006003884,0.999982],"scale":[0.9999998,0.9999999,1.0],"name":"right_knee"},{"translation":[0.27854735,1.14564315E-07,5.7220458E-08],"rotation":[-5.3490563E-08,3.356563E-07,0.7195823,0.6944072],"name":"right_foot"},{"children":[17],"translation":[0.0,2.6782036E-08,0.09649993],"rotation":[-8.873168E-08,3.5715482E-07,0.9999936,-0.0035626378],"scale":[1.0,1.0000004,0.9999999],"name":"left_thigh"},{"children":[18],"translation":[0.19115531,9.533763E-07,7.6293944E-08],"rotation":[-2.552542E-08,-0.0,-0.0060089948,0.9999819],"scale":[1.0,0.9999999,0.9999999],"name":"left_knee"},{"translation":[0.27854466,-3.836608E-08,-9.536743E-09],"rotation":[-4.280355E-08,8.839073E-08,0.71958524,0.6944041],"scale":[1.0000004,1.0,1.0000001],"name":"left_foot"}],"meshes":[{"primitives":[{"attributes":{"POSITION":1,"NORMAL":2,"TEXCOORD_0":3,"JOINTS_0":4,"JOINTS_1":5,"WEIGHTS_0":6,"WEIGHTS_1":7},"indices":0}],"name":"character"}],"accessors":[{"bufferView":0,"componentType":5123,"count":2556,"type":"SCALAR","name":"accessorIndices"},{"bufferView":1,"componentType":5126,"count":2556,"max":[0.20272459,1.3948387,0.29359755],"min":[-0.17232569,3.8096857E-08,-0.29359055],"type":"VEC3","name":"accessorPositions"},{"bufferView":1,"byteOffset":30672,"componentType":5126,"count":2556,"type":"VEC3","name":"accessorNormals"},{"bufferView":2,"componentType":5126,"count":2556,"type":"VEC2","name":"accessorUVs"},{"bufferView":3,"componentType":5123,"count":2556,"type":"VEC4","name":"accessorJoints"},{"bufferView":3,"byteOffset":20448,"componentType":5123,"count":2556,"type":"VEC4","name":"accessorJointsExtra"},{"bufferView":4,"componentType":5126,"count":2556,"type":"VEC4","name":"accessorWeights"},{"bufferView":4,"byteOffset":40896,"componentType":5126,"count":2556,"type":"VEC4","name":"accessorWeightsExtra"},{"bufferView":5,"componentType":5126,"count":18,"type":"MAT4","name":"accessorInverseBindMatrices"},{"bufferView":6,"componentType":5126,"count":200,"max":[13.333333],"min":[0.0],"type":"SCALAR","name":"accessorAnimationInput"},{"bufferView":7,"componentType":5126,"count":200,"type":"VEC3","name":"accessorAnimationPositions"},{"bufferView":8,"componentType":5126,"count":200,"type":"VEC4","name":"accessorAnimationRotations"},{"bufferView":7,"byteOffset":2400,"componentType":5126,"count":200,"type":"VEC3","name":"accessorAnimationScales"},{"bufferView":6,"byteOffset":800,"componentType":5126,"count":334,"max":[13.333333],"min":[0.0],"type":"SCALAR","name":"accessorAnimationInput"},{"bufferView":7,"byteOffset":4800,"componentType":5126,"count":334,"type":"VEC3","name":"accessorAnimationPositions"},{"bufferView":8,"byteOffset":3200,"componentType":5126,"count":334,"type":"VEC4","name":"accessorAnimationRotations"},{"bufferView":7,"byteOffset":8808,"componentType":5126,"count":334,"type":"VEC3","name":"accessorAnimationScales"},{"bufferView":6,"byteOffset":2136,"componentType":5126,"count":360,"max":[13.333333],"min":[0.0],"type":"SCALAR","name":"accessorAnimationInput"},{"bufferView":7,"byteOffset":12816,"componentType":5126,"count":360,"type":"VEC3","name":"accessorAnimationPositions"},{"bufferView":8,"byteOffset":8544,"componentType":5126,"count":360,"type":"VEC4","name":"accessorAnimationRotations"},{"bufferView":7,"byteOffset":17136,"componentType":5126,"count":360,"type":"VEC3","name":"accessorAnimationScales"},{"bufferView":6,"byteOffset":3576,"componentType":5126,"count":348,"max":[13.333333],"min":[0.0],"type":"SCALAR","name":"accessorAnimationInput"},{"bufferView":7,"byteOffset":21456,"componentType":5126,"count":348,"type":"VEC3","name":"accessorAnimationPositions"},{"bufferView":8,"byteOffset":14304,"componentType":5126,"count":348,"type":"VEC4","name":"accessorAnimationRotations"},{"bufferView":7,"byteOffset":25632,"componentType":5126,"count":348,"type":"VEC3","name":"accessorAnimationScales"},{"bufferView":6,"byteOffset":4968,"componentType":5126,"count":370,"max":[13.333333],"min":[0.0],"type":"SCALAR","name":"accessorAnimationInput"},{"bufferView":7,"byteOffset":29808,"componentType":5126,"count":370,"type":"VEC3","name":"accessorAnimationPositions"},{"bufferView":8,"byteOffset":19872,"componentType":5126,"count":370,"type":"VEC4","name":"accessorAnimationRotations"},{"bufferView":7,"byteOffset":34248,"componentType":5126,"count":370,"type":"VEC3","name":"accessorAnimationScales"},{"bufferView":6,"byteOffset":6448,"componentType":5126,"count":370,"max":[13.333333],"min":[0.0],"type":"SCALAR","name":"accessorAnimationInput"},{"bufferView":7,"byteOffset":38688,"componentType":5126,"count":370,"type":"VEC3","name":"accessorAnimationPositions"},{"bufferView":8,"byteOffset":25792,"componentType":5126,"count":370,"type":"VEC4","name":"accessorAnimationRotations"},{"bufferView":7,"byteOffset":43128,"componentType":5126,"count":370,"type":"VEC3","name":"accessorAnimationScales"},{"bufferView":6,"byteOffset":7928,"componentType":5126,"count":370,"max":[13.333333],"min":[0.0],"type":"SCALAR","name":"accessorAnimationInput"},{"bufferView":7,"byteOffset":47568,"componentType":5126,"count":370,"type":"VEC3","name":"accessorAnimationPositions"},{"bufferView":8,"byteOffset":31712,"componentType":5126,"count":370,"type":"VEC4","name":"accessorAnimationRotations"},{"bufferView":7,"byteOffset":52008,"componentType":5126,"count":370,"type":"VEC3","name":"accessorAnimationScales"},{"bufferView":6,"byteOffset":9408,"componentType":5126,"count":370,"max":[13.333333],"min":[0.0],"type":"SCALAR","name":"accessorAnimationInput"},{"bufferView":7,"byteOffset":56448,"componentType":5126,"count":370,"type":"VEC3","name":"accessorAnimationPositions"},{"bufferView":8,"byteOffset":37632,"componentType":5126,"count":370,"type":"VEC4","name":"accessorAnimationRotations"},{"bufferView":7,"byteOffset":60888,"componentType":5126,"count":370,"type":"VEC3","name":"accessorAnimationScales"},{"bufferView":6,"byteOffset":10888,"componentType":5126,"count":370,"max":[13.333333],"min":[0.0],"type":"SCALAR","name":"accessorAnimationInput"},{"bufferView":7,"byteOffset":65328,"componentType":5126,"count":370,"type":"VEC3","name":"accessorAnimationPositions"},{"bufferView":8,"byteOffset":43552,"componentType":5126,"count":370,"type":"VEC4","name":"accessorAnimationRotations"},{"bufferView":7,"byteOffset":69768,"componentType":5126,"count":370,"type":"VEC3","name":"accessorAnimationScales"},{"bufferView":6,"byteOffset":12368,"componentType":5126,"count":379,"max":[13.333333],"min":[0.0],"type":"SCALAR","name":"accessorAnimationInput"},{"bufferView":7,"byteOffset":74208,"componentType":5126,"count":379,"type":"VEC3","name":"accessorAnimationPositions"},{"bufferView":8,"byteOffset":49472,"componentType":5126,"count":379,"type":"VEC4","name":"accessorAnimationRotations"},{"bufferView":7,"byteOffset":78756,"componentType":5126,"count":379,"type":"VEC3","name":"accessorAnimationScales"},{"bufferView":6,"byteOffset":13884,"componentType":5126,"count":379,"max":[13.333333],"min":[0.0],"type":"SCALAR","name":"accessorAnimationInput"},{"bufferView":7,"byteOffset":83304,"componentType":5126,"count":379,"type":"VEC3","name":"accessorAnimationPositions"},{"bufferView":8,"byteOffset":55536,"componentType":5126,"count":379,"type":"VEC4","name":"accessorAnimationRotations"},{"bufferView":7,"byteOffset":87852,"componentType":5126,"count":379,"type":"VEC3","name":"accessorAnimationScales"},{"bufferView":6,"byteOffset":15400,"componentType":5126,"count":379,"max":[13.333333],"min":[0.0],"type":"SCALAR","name":"accessorAnimationInput"},{"bufferView":7,"byteOffset":92400,"componentType":5126,"count":379,"type":"VEC3","name":"accessorAnimationPositions"},{"bufferView":8,"byteOffset":61600,"componentType":5126,"count":379,"type":"VEC4","name":"accessorAnimationRotations"},{"bufferView":7,"byteOffset":96948,"componentType":5126,"count":379,"type":"VEC3","name":"accessorAnimationScales"},{"bufferView":6,"byteOffset":16916,"componentType":5126,"count":233,"max":[13.333333],"min":[0.0],"type":"SCALAR","name":"accessorAnimationInput"},{"bufferView":7,"byteOffset":101496,"componentType":5126,"count":233,"type":"VEC3","name":"accessorAnimationPositions"},{"bufferView":8,"byteOffset":67664,"componentType":5126,"count":233,"type":"VEC4","name":"accessorAnimationRotations"},{"bufferView":7,"byteOffset":104292,"componentType":5126,"count":233,"type":"VEC3","name":"accessorAnimationScales"},{"bufferView":6,"byteOffset":17848,"componentType":5126,"count":233,"max":[13.333333],"min":[0.0],"type":"SCALAR","name":"accessorAnimationInput"},{"bufferView":7,"byteOffset":107088,"componentType":5126,"count":233,"type":"VEC3","name":"accessorAnimationPositions"},{"bufferView":8,"byteOffset":71392,"componentType":5126,"count":233,"type":"VEC4","name":"accessorAnimationRotations"},{"bufferView":7,"byteOffset":109884,"componentType":5126,"count":233,"type":"VEC3","name":"accessorAnimationScales"},{"bufferView":6,"byteOffset":18780,"componentType":5126,"count":233,"max":[13.333333],"min":[0.0],"type":"SCALAR","name":"accessorAnimationInput"},{"bufferView":7,"byteOffset":112680,"componentType":5126,"count":233,"type":"VEC3","name":"accessorAnimationPositions"},{"bufferView":8,"byteOffset":75120,"componentType":5126,"count":233,"type":"VEC4","name":"accessorAnimationRotations"},{"bufferView":7,"byteOffset":115476,"componentType":5126,"count":233,"type":"VEC3","name":"accessorAnimationScales"},{"bufferView":6,"byteOffset":19712,"componentType":5126,"count":233,"max":[13.333333],"min":[0.0],"type":"SCALAR","name":"accessorAnimationInput"},{"bufferView":7,"byteOffset":118272,"componentType":5126,"count":233,"type":"VEC3","name":"accessorAnimationPositions"},{"bufferView":8,"byteOffset":78848,"componentType":5126,"count":233,"type":"VEC4","name":"accessorAnimationRotations"},{"bufferView":7,"byteOffset":121068,"componentType":5126,"count":233,"type":"VEC3","name":"accessorAnimationScales"},{"bufferView":6,"byteOffset":20644,"componentType":5126,"count":233,"max":[13.333333],"min":[0.0],"type":"SCALAR","name":"accessorAnimationInput"},{"bufferView":7,"byteOffset":123864,"componentType":5126,"count":233,"type":"VEC3","name":"accessorAnimationPositions"},{"bufferView":8,"byteOffset":82576,"componentType":5126,"count":233,"type":"VEC4","name":"accessorAnimationRotations"},{"bufferView":7,"byteOffset":126660,"componentType":5126,"count":233,"type":"VEC3","name":"accessorAnimationScales"},{"bufferView":6,"byteOffset":21576,"componentType":5126,"count":233,"max":[13.333333],"min":[0.0],"type":"SCALAR","name":"accessorAnimationInput"},{"bufferView":7,"byteOffset":129456,"componentType":5126,"count":233,"type":"VEC3","name":"accessorAnimationPositions"},{"bufferView":8,"byteOffset":86304,"componentType":5126,"count":233,"type":"VEC4","name":"accessorAnimationRotations"},{"bufferView":7,"byteOffset":132252,"componentType":5126,"count":233,"type":"VEC3","name":"accessorAnimationScales"}],"bufferViews":[{"buffer":0,"byteLength":5112,"name":"bufferViewScalar"},{"buffer":0,"byteOffset":5112,"byteLength":61344,"byteStride":12,"name":"bufferViewFloatVec3"},{"buffer":0,"byteOffset":66456,"byteLength":20448,"byteStride":8,"name":"bufferViewFloatVec2"},{"buffer":0,"byteOffset":86904,"byteLength":40896,"byteStride":8,"name":"bufferViewUnsignedShortVec4"},{"buffer":0,"byteOffset":127800,"byteLength":81792,"byteStride":16,"name":"bufferViewFloatVec4"},{"buffer":0,"byteOffset":209592,"byteLength":1152,"name":"bufferViewFloatMat4"},{"buffer":0,"byteOffset":210744,"byteLength":22508,"name":"bufferViewAnimationFloatScalar"},{"buffer":0,"byteOffset":233252,"byteLength":135048,"name":"bufferViewAnimationFloatVec3"},{"buffer":0,"byteOffset":368300,"byteLength":90032,"name":"bufferViewAnimationFloatVec4"}],"buffers":[{"uri":"Character.bin","byteLength":458332}],"animations":[{"channels":[{"sampler":0,"target":{"node":1,"path":"translation"}},{"sampler":1,"target":{"node":1,"path":"rotation"}},{"sampler":2,"target":{"node":1,"path":"scale"}},{"sampler":3,"target":{"node":2,"path":"translation"}},{"sampler":4,"target":{"node":2,"path":"rotation"}},{"sampler":5,"target":{"node":2,"path":"scale"}},{"sampler":6,"target":{"node":3,"path":"translation"}},{"sampler":7,"target":{"node":3,"path":"rotation"}},{"sampler":8,"target":{"node":3,"path":"scale"}},{"sampler":9,"target":{"node":4,"path":"translation"}},{"sampler":10,"target":{"node":4,"path":"rotation"}},{"sampler":11,"target":{"node":4,"path":"scale"}},{"sampler":12,"target":{"node":5,"path":"translation"}},{"sampler":13,"target":{"node":5,"path":"rotation"}},{"sampler":14,"target":{"node":5,"path":"scale"}},{"sampler":15,"target":{"node":6,"path":"translation"}},{"sampler":16,"target":{"node":6,"path":"rotation"}},{"sampler":17,"target":{"node":6,"path":"scale"}},{"sampler":18,"target":{"node":7,"path":"translation"}},{"sampler":19,"target":{"node":7,"path":"rotation"}},{"sampler":20,"target":{"node":7,"path":"scale"}},{"sampler":21,"target":{"node":8,"path":"translation"}},{"sampler":22,"target":{"node":8,"path":"rotation"}},{"sampler":23,"target":{"node":8,"path":"scale"}},{"sampler":24,"target":{"node":9,"path":"translation"}},{"sampler":25,"target":{"node":9,"path":"rotation"}},{"sampler":26,"target":{"node":9,"path":"scale"}},{"sampler":27,"target":{"node":10,"path":"translation"}},{"sampler":28,"target":{"node":10,"path":"rotation"}},{"sampler":29,"target":{"node":10,"path":"scale"}},{"sampler":30,"target":{"node":11,"path":"translation"}},{"sampler":31,"target":{"node":11,"path":"rotation"}},{"sampler":32,"target":{"node":11,"path":"scale"}},{"sampler":33,"target":{"node":12,"path":"translation"}},{"sampler":34,"target":{"node":12,"path":"rotation"}},{"sampler":35,"target":{"node":12,"path":"scale"}},{"sampler":36,"target":{"node":13,"path":"translation"}},{"sampler":37,"target":{"node":13,"path":"rotation"}},{"sampler":38,"target":{"node":13,"path":"scale"}},{"sampler":39,"target":{"node":14,"path":"translation"}},{"sampler":40,"target":{"node":14,"path":"rotation"}},{"sampler":41,"target":{"node":14,"path":"scale"}},{"sampler":42,"target":{"node":15,"path":"translation"}},{"sampler":43,"target":{"node":15,"path":"rotation"}},{"sampler":44,"target":{"node":15,"path":"scale"}},{"sampler":45,"target":{"node":16,"path":"translation"}},{"sampler":46,"target":{"node":16,"path":"rotation"}},{"sampler":47,"target":{"node":16,"path":"scale"}},{"sampler":48,"target":{"node":17,"path":"translation"}},{"sampler":49,"target":{"node":17,"path":"rotation"}},{"sampler":50,"target":{"node":17,"path":"scale"}},{"sampler":51,"target":{"node":18,"path":"translation"}},{"sampler":52,"target":{"node":18,"path":"rotation"}},{"sampler":53,"target":{"node":18,"path":"scale"}}],"samplers":[{"input":9,"output":10},{"input":9,"output":11},{"input":9,"output":12},{"input":13,"output":14},{"input":13,"output":15},{"input":13,"output":16},{"input":17,"output":18},{"input":17,"output":19},{"input":17,"output":20},{"input":21,"output":22},{"input":21,"output":23},{"input":21,"output":24},{"input":25,"output":26},{"input":25,"output":27},{"input":25,"output":28},{"input":29,"output":30},{"input":29,"output":31},{"input":29,"output":32},{"input":33,"output":34},{"input":33,"output":35},{"input":33,"output":36},{"input":37,"output":38},{"input":37,"output":39},{"input":37,"output":40},{"input":41,"output":42},{"input":41,"output":43},{"input":41,"output":44},{"input":45,"output":46},{"input":45,"output":47},{"input":45,"output":48},{"input":49,"output":50},{"input":49,"output":51},{"input":49,"output":52},{"input":53,"output":54},{"input":53,"output":55},{"input":53,"output":56},{"input":57,"output":58},{"input":57,"output":59},{"input":57,"output":60},{"input":61,"output":62},{"input":61,"output":63},{"input":61,"output":64},{"input":65,"output":66},{"input":65,"output":67},{"input":65,"output":68},{"input":69,"output":70},{"input":69,"output":71},{"input":69,"output":72},{"input":73,"output":74},{"input":73,"output":75},{"input":73,"output":76},{"input":77,"output":78},{"input":77,"output":79},{"input":77,"output":80}],"name":"All Animations"}],"skins":[{"inverseBindMatrices":8,"skeleton":1,"joints":[1,2,3,4,5,6,7,8,9,10,11,12,13,14,15,16,17,18],"name":"skeleton #0"}]}